<mxfile host="app.diagrams.net" modified="2022-01-20T10:49:03.641Z" agent="5.0 (Windows NT 10.0; Win64; x64) AppleWebKit/537.36 (KHTML, like Gecko) Chrome/97.0.4692.71 Safari/537.36" etag="AVONnaQXZcXYUIZy_ZHA" version="16.2.7" type="github" pages="3">
  <diagram id="C5RBs43oDa-KdzZeNtuy" name="Page-1">
    <mxGraphModel dx="1038" dy="579" grid="1" gridSize="10" guides="1" tooltips="1" connect="1" arrows="1" fold="1" page="1" pageScale="1" pageWidth="827" pageHeight="1169" math="0" shadow="0">
      <root>
        <mxCell id="WIyWlLk6GJQsqaUBKTNV-0" />
        <mxCell id="WIyWlLk6GJQsqaUBKTNV-1" parent="WIyWlLk6GJQsqaUBKTNV-0" />
        <mxCell id="zkfFHV4jXpPFQw0GAbJ--0" value="MasterProduct" style="swimlane;fontStyle=2;align=center;verticalAlign=top;childLayout=stackLayout;horizontal=1;startSize=26;horizontalStack=0;resizeParent=1;resizeLast=0;collapsible=1;marginBottom=0;rounded=0;shadow=0;strokeWidth=1;" parent="WIyWlLk6GJQsqaUBKTNV-1" vertex="1">
          <mxGeometry x="240" y="230" width="160" height="216" as="geometry">
            <mxRectangle x="230" y="140" width="160" height="26" as="alternateBounds" />
          </mxGeometry>
        </mxCell>
        <mxCell id="WyYwE0s2Usa1r8CqzPVr-2" value="id" style="text;align=left;verticalAlign=top;spacingLeft=4;spacingRight=4;overflow=hidden;rotatable=0;points=[[0,0.5],[1,0.5]];portConstraint=eastwest;" parent="zkfFHV4jXpPFQw0GAbJ--0" vertex="1">
          <mxGeometry y="26" width="160" height="26" as="geometry" />
        </mxCell>
        <mxCell id="zkfFHV4jXpPFQw0GAbJ--1" value="guid" style="text;align=left;verticalAlign=top;spacingLeft=4;spacingRight=4;overflow=hidden;rotatable=0;points=[[0,0.5],[1,0.5]];portConstraint=eastwest;" parent="zkfFHV4jXpPFQw0GAbJ--0" vertex="1">
          <mxGeometry y="52" width="160" height="26" as="geometry" />
        </mxCell>
        <mxCell id="zkfFHV4jXpPFQw0GAbJ--2" value="name" style="text;align=left;verticalAlign=top;spacingLeft=4;spacingRight=4;overflow=hidden;rotatable=0;points=[[0,0.5],[1,0.5]];portConstraint=eastwest;rounded=0;shadow=0;html=0;" parent="zkfFHV4jXpPFQw0GAbJ--0" vertex="1">
          <mxGeometry y="78" width="160" height="26" as="geometry" />
        </mxCell>
        <mxCell id="zkfFHV4jXpPFQw0GAbJ--3" value="guidCategory" style="text;align=left;verticalAlign=top;spacingLeft=4;spacingRight=4;overflow=hidden;rotatable=0;points=[[0,0.5],[1,0.5]];portConstraint=eastwest;rounded=0;shadow=0;html=0;" parent="zkfFHV4jXpPFQw0GAbJ--0" vertex="1">
          <mxGeometry y="104" width="160" height="26" as="geometry" />
        </mxCell>
        <mxCell id="WyYwE0s2Usa1r8CqzPVr-0" value="sku" style="text;align=left;verticalAlign=top;spacingLeft=4;spacingRight=4;overflow=hidden;rotatable=0;points=[[0,0.5],[1,0.5]];portConstraint=eastwest;rounded=0;shadow=0;html=0;" parent="zkfFHV4jXpPFQw0GAbJ--0" vertex="1">
          <mxGeometry y="130" width="160" height="26" as="geometry" />
        </mxCell>
        <mxCell id="zkfFHV4jXpPFQw0GAbJ--4" value="" style="line;html=1;strokeWidth=1;align=left;verticalAlign=middle;spacingTop=-1;spacingLeft=3;spacingRight=3;rotatable=0;labelPosition=right;points=[];portConstraint=eastwest;" parent="zkfFHV4jXpPFQw0GAbJ--0" vertex="1">
          <mxGeometry y="156" width="160" height="8" as="geometry" />
        </mxCell>
        <mxCell id="zkfFHV4jXpPFQw0GAbJ--5" value="dimensionCharacteristics" style="text;align=left;verticalAlign=top;spacingLeft=4;spacingRight=4;overflow=hidden;rotatable=0;points=[[0,0.5],[1,0.5]];portConstraint=eastwest;" parent="zkfFHV4jXpPFQw0GAbJ--0" vertex="1">
          <mxGeometry y="164" width="160" height="26" as="geometry" />
        </mxCell>
        <mxCell id="WyYwE0s2Usa1r8CqzPVr-1" value="другие свойства" style="text;align=left;verticalAlign=top;spacingLeft=4;spacingRight=4;overflow=hidden;rotatable=0;points=[[0,0.5],[1,0.5]];portConstraint=eastwest;" parent="zkfFHV4jXpPFQw0GAbJ--0" vertex="1">
          <mxGeometry y="190" width="160" height="26" as="geometry" />
        </mxCell>
        <mxCell id="zkfFHV4jXpPFQw0GAbJ--17" value="Product" style="swimlane;fontStyle=0;align=center;verticalAlign=top;childLayout=stackLayout;horizontal=1;startSize=26;horizontalStack=0;resizeParent=1;resizeLast=0;collapsible=1;marginBottom=0;rounded=0;shadow=0;strokeWidth=1;" parent="WIyWlLk6GJQsqaUBKTNV-1" vertex="1">
          <mxGeometry x="470" y="257" width="200" height="242" as="geometry">
            <mxRectangle x="550" y="140" width="160" height="26" as="alternateBounds" />
          </mxGeometry>
        </mxCell>
        <mxCell id="zkfFHV4jXpPFQw0GAbJ--18" value="id" style="text;align=left;verticalAlign=top;spacingLeft=4;spacingRight=4;overflow=hidden;rotatable=0;points=[[0,0.5],[1,0.5]];portConstraint=eastwest;" parent="zkfFHV4jXpPFQw0GAbJ--17" vertex="1">
          <mxGeometry y="26" width="200" height="26" as="geometry" />
        </mxCell>
        <mxCell id="zkfFHV4jXpPFQw0GAbJ--19" value="guid" style="text;align=left;verticalAlign=top;spacingLeft=4;spacingRight=4;overflow=hidden;rotatable=0;points=[[0,0.5],[1,0.5]];portConstraint=eastwest;rounded=0;shadow=0;html=0;" parent="zkfFHV4jXpPFQw0GAbJ--17" vertex="1">
          <mxGeometry y="52" width="200" height="26" as="geometry" />
        </mxCell>
        <mxCell id="zkfFHV4jXpPFQw0GAbJ--20" value="MasterProduct_id не обязательное" style="text;align=left;verticalAlign=top;spacingLeft=4;spacingRight=4;overflow=hidden;rotatable=0;points=[[0,0.5],[1,0.5]];portConstraint=eastwest;rounded=0;shadow=0;html=0;" parent="zkfFHV4jXpPFQw0GAbJ--17" vertex="1">
          <mxGeometry y="78" width="200" height="26" as="geometry" />
        </mxCell>
        <mxCell id="zkfFHV4jXpPFQw0GAbJ--21" value="Category_id" style="text;align=left;verticalAlign=top;spacingLeft=4;spacingRight=4;overflow=hidden;rotatable=0;points=[[0,0.5],[1,0.5]];portConstraint=eastwest;rounded=0;shadow=0;html=0;" parent="zkfFHV4jXpPFQw0GAbJ--17" vertex="1">
          <mxGeometry y="104" width="200" height="26" as="geometry" />
        </mxCell>
        <mxCell id="zkfFHV4jXpPFQw0GAbJ--22" value="name" style="text;align=left;verticalAlign=top;spacingLeft=4;spacingRight=4;overflow=hidden;rotatable=0;points=[[0,0.5],[1,0.5]];portConstraint=eastwest;rounded=0;shadow=0;html=0;" parent="zkfFHV4jXpPFQw0GAbJ--17" vertex="1">
          <mxGeometry y="130" width="200" height="26" as="geometry" />
        </mxCell>
        <mxCell id="aLkEenJyaQXW2KMdG-5Q-20" value="isBaseProduct товар является МЦ" style="text;align=left;verticalAlign=top;spacingLeft=4;spacingRight=4;overflow=hidden;rotatable=0;points=[[0,0.5],[1,0.5]];portConstraint=eastwest;rounded=0;shadow=0;html=0;" vertex="1" parent="zkfFHV4jXpPFQw0GAbJ--17">
          <mxGeometry y="156" width="200" height="26" as="geometry" />
        </mxCell>
        <mxCell id="WyYwE0s2Usa1r8CqzPVr-3" value="sku" style="text;align=left;verticalAlign=top;spacingLeft=4;spacingRight=4;overflow=hidden;rotatable=0;points=[[0,0.5],[1,0.5]];portConstraint=eastwest;rounded=0;shadow=0;html=0;" parent="zkfFHV4jXpPFQw0GAbJ--17" vertex="1">
          <mxGeometry y="182" width="200" height="26" as="geometry" />
        </mxCell>
        <mxCell id="zkfFHV4jXpPFQw0GAbJ--23" value="" style="line;html=1;strokeWidth=1;align=left;verticalAlign=middle;spacingTop=-1;spacingLeft=3;spacingRight=3;rotatable=0;labelPosition=right;points=[];portConstraint=eastwest;" parent="zkfFHV4jXpPFQw0GAbJ--17" vertex="1">
          <mxGeometry y="208" width="200" height="8" as="geometry" />
        </mxCell>
        <mxCell id="zkfFHV4jXpPFQw0GAbJ--24" value="свойства товара" style="text;align=left;verticalAlign=top;spacingLeft=4;spacingRight=4;overflow=hidden;rotatable=0;points=[[0,0.5],[1,0.5]];portConstraint=eastwest;" parent="zkfFHV4jXpPFQw0GAbJ--17" vertex="1">
          <mxGeometry y="216" width="200" height="26" as="geometry" />
        </mxCell>
        <mxCell id="aLkEenJyaQXW2KMdG-5Q-0" value="PimCategory" style="swimlane;fontStyle=0;childLayout=stackLayout;horizontal=1;startSize=26;fillColor=none;horizontalStack=0;resizeParent=1;resizeParentMax=0;resizeLast=0;collapsible=1;marginBottom=0;" vertex="1" parent="WIyWlLk6GJQsqaUBKTNV-1">
          <mxGeometry x="180" y="590" width="140" height="158" as="geometry" />
        </mxCell>
        <mxCell id="aLkEenJyaQXW2KMdG-5Q-1" value="id" style="text;strokeColor=none;fillColor=none;align=left;verticalAlign=top;spacingLeft=4;spacingRight=4;overflow=hidden;rotatable=0;points=[[0,0.5],[1,0.5]];portConstraint=eastwest;" vertex="1" parent="aLkEenJyaQXW2KMdG-5Q-0">
          <mxGeometry y="26" width="140" height="26" as="geometry" />
        </mxCell>
        <mxCell id="aLkEenJyaQXW2KMdG-5Q-12" value="guid" style="text;strokeColor=none;fillColor=none;align=left;verticalAlign=top;spacingLeft=4;spacingRight=4;overflow=hidden;rotatable=0;points=[[0,0.5],[1,0.5]];portConstraint=eastwest;" vertex="1" parent="aLkEenJyaQXW2KMdG-5Q-0">
          <mxGeometry y="52" width="140" height="28" as="geometry" />
        </mxCell>
        <mxCell id="aLkEenJyaQXW2KMdG-5Q-2" value="name" style="text;strokeColor=none;fillColor=none;align=left;verticalAlign=top;spacingLeft=4;spacingRight=4;overflow=hidden;rotatable=0;points=[[0,0.5],[1,0.5]];portConstraint=eastwest;" vertex="1" parent="aLkEenJyaQXW2KMdG-5Q-0">
          <mxGeometry y="80" width="140" height="26" as="geometry" />
        </mxCell>
        <mxCell id="aLkEenJyaQXW2KMdG-5Q-3" value="guidParent" style="text;strokeColor=none;fillColor=none;align=left;verticalAlign=top;spacingLeft=4;spacingRight=4;overflow=hidden;rotatable=0;points=[[0,0.5],[1,0.5]];portConstraint=eastwest;" vertex="1" parent="aLkEenJyaQXW2KMdG-5Q-0">
          <mxGeometry y="106" width="140" height="26" as="geometry" />
        </mxCell>
        <mxCell id="aLkEenJyaQXW2KMdG-5Q-4" value="guidSeria" style="text;strokeColor=none;fillColor=none;align=left;verticalAlign=top;spacingLeft=4;spacingRight=4;overflow=hidden;rotatable=0;points=[[0,0.5],[1,0.5]];portConstraint=eastwest;" vertex="1" parent="aLkEenJyaQXW2KMdG-5Q-0">
          <mxGeometry y="132" width="140" height="26" as="geometry" />
        </mxCell>
        <mxCell id="aLkEenJyaQXW2KMdG-5Q-5" value="Category" style="swimlane;fontStyle=0;childLayout=stackLayout;horizontal=1;startSize=26;fillColor=none;horizontalStack=0;resizeParent=1;resizeParentMax=0;resizeLast=0;collapsible=1;marginBottom=0;" vertex="1" parent="WIyWlLk6GJQsqaUBKTNV-1">
          <mxGeometry x="400" y="590" width="140" height="130" as="geometry" />
        </mxCell>
        <mxCell id="aLkEenJyaQXW2KMdG-5Q-6" value="id" style="text;strokeColor=none;fillColor=none;align=left;verticalAlign=top;spacingLeft=4;spacingRight=4;overflow=hidden;rotatable=0;points=[[0,0.5],[1,0.5]];portConstraint=eastwest;" vertex="1" parent="aLkEenJyaQXW2KMdG-5Q-5">
          <mxGeometry y="26" width="140" height="26" as="geometry" />
        </mxCell>
        <mxCell id="aLkEenJyaQXW2KMdG-5Q-7" value="name" style="text;strokeColor=none;fillColor=none;align=left;verticalAlign=top;spacingLeft=4;spacingRight=4;overflow=hidden;rotatable=0;points=[[0,0.5],[1,0.5]];portConstraint=eastwest;" vertex="1" parent="aLkEenJyaQXW2KMdG-5Q-5">
          <mxGeometry y="52" width="140" height="26" as="geometry" />
        </mxCell>
        <mxCell id="aLkEenJyaQXW2KMdG-5Q-8" value="ParentId" style="text;strokeColor=none;fillColor=none;align=left;verticalAlign=top;spacingLeft=4;spacingRight=4;overflow=hidden;rotatable=0;points=[[0,0.5],[1,0.5]];portConstraint=eastwest;" vertex="1" parent="aLkEenJyaQXW2KMdG-5Q-5">
          <mxGeometry y="78" width="140" height="26" as="geometry" />
        </mxCell>
        <mxCell id="aLkEenJyaQXW2KMdG-5Q-9" value="PimCategory_id" style="text;strokeColor=none;fillColor=none;align=left;verticalAlign=top;spacingLeft=4;spacingRight=4;overflow=hidden;rotatable=0;points=[[0,0.5],[1,0.5]];portConstraint=eastwest;" vertex="1" parent="aLkEenJyaQXW2KMdG-5Q-5">
          <mxGeometry y="104" width="140" height="26" as="geometry" />
        </mxCell>
        <mxCell id="aLkEenJyaQXW2KMdG-5Q-11" value="" style="edgeStyle=entityRelationEdgeStyle;fontSize=12;html=1;endArrow=ERoneToMany;startArrow=ERmandOne;rounded=0;exitX=1;exitY=0.5;exitDx=0;exitDy=0;entryX=0;entryY=0.5;entryDx=0;entryDy=0;" edge="1" parent="WIyWlLk6GJQsqaUBKTNV-1" source="aLkEenJyaQXW2KMdG-5Q-1" target="aLkEenJyaQXW2KMdG-5Q-9">
          <mxGeometry width="100" height="100" relative="1" as="geometry">
            <mxPoint x="300" y="800" as="sourcePoint" />
            <mxPoint x="400" y="700" as="targetPoint" />
          </mxGeometry>
        </mxCell>
        <mxCell id="aLkEenJyaQXW2KMdG-5Q-14" value="" style="edgeStyle=entityRelationEdgeStyle;fontSize=12;html=1;endArrow=ERoneToMany;startArrow=ERmandOne;rounded=0;exitX=1;exitY=0.5;exitDx=0;exitDy=0;entryX=0;entryY=0.5;entryDx=0;entryDy=0;" edge="1" parent="WIyWlLk6GJQsqaUBKTNV-1" source="WyYwE0s2Usa1r8CqzPVr-2" target="zkfFHV4jXpPFQw0GAbJ--20">
          <mxGeometry width="100" height="100" relative="1" as="geometry">
            <mxPoint x="360" y="550" as="sourcePoint" />
            <mxPoint x="460" y="450" as="targetPoint" />
          </mxGeometry>
        </mxCell>
        <mxCell id="aLkEenJyaQXW2KMdG-5Q-15" value="" style="edgeStyle=entityRelationEdgeStyle;fontSize=12;html=1;endArrow=ERoneToMany;startArrow=ERmandOne;rounded=0;exitX=1;exitY=0.5;exitDx=0;exitDy=0;" edge="1" parent="WIyWlLk6GJQsqaUBKTNV-1" source="aLkEenJyaQXW2KMdG-5Q-6" target="zkfFHV4jXpPFQw0GAbJ--21">
          <mxGeometry width="100" height="100" relative="1" as="geometry">
            <mxPoint x="360" y="550" as="sourcePoint" />
            <mxPoint x="460" y="450" as="targetPoint" />
          </mxGeometry>
        </mxCell>
        <mxCell id="aLkEenJyaQXW2KMdG-5Q-16" value="Properties" style="swimlane;fontStyle=0;childLayout=stackLayout;horizontal=1;startSize=26;fillColor=none;horizontalStack=0;resizeParent=1;resizeParentMax=0;resizeLast=0;collapsible=1;marginBottom=0;" vertex="1" parent="WIyWlLk6GJQsqaUBKTNV-1">
          <mxGeometry y="550" width="140" height="104" as="geometry" />
        </mxCell>
        <mxCell id="aLkEenJyaQXW2KMdG-5Q-17" value="id" style="text;strokeColor=none;fillColor=none;align=left;verticalAlign=top;spacingLeft=4;spacingRight=4;overflow=hidden;rotatable=0;points=[[0,0.5],[1,0.5]];portConstraint=eastwest;" vertex="1" parent="aLkEenJyaQXW2KMdG-5Q-16">
          <mxGeometry y="26" width="140" height="26" as="geometry" />
        </mxCell>
        <mxCell id="aLkEenJyaQXW2KMdG-5Q-18" value="name" style="text;strokeColor=none;fillColor=none;align=left;verticalAlign=top;spacingLeft=4;spacingRight=4;overflow=hidden;rotatable=0;points=[[0,0.5],[1,0.5]];portConstraint=eastwest;" vertex="1" parent="aLkEenJyaQXW2KMdG-5Q-16">
          <mxGeometry y="52" width="140" height="26" as="geometry" />
        </mxCell>
        <mxCell id="aLkEenJyaQXW2KMdG-5Q-19" value="code" style="text;strokeColor=none;fillColor=none;align=left;verticalAlign=top;spacingLeft=4;spacingRight=4;overflow=hidden;rotatable=0;points=[[0,0.5],[1,0.5]];portConstraint=eastwest;" vertex="1" parent="aLkEenJyaQXW2KMdG-5Q-16">
          <mxGeometry y="78" width="140" height="26" as="geometry" />
        </mxCell>
        <mxCell id="aLkEenJyaQXW2KMdG-5Q-21" value="BaseProduct" style="swimlane;fontStyle=0;childLayout=stackLayout;horizontal=1;startSize=26;fillColor=none;horizontalStack=0;resizeParent=1;resizeParentMax=0;resizeLast=0;collapsible=1;marginBottom=0;" vertex="1" parent="WIyWlLk6GJQsqaUBKTNV-1">
          <mxGeometry x="40" y="330" width="140" height="104" as="geometry" />
        </mxCell>
        <mxCell id="aLkEenJyaQXW2KMdG-5Q-22" value="guidPim" style="text;strokeColor=none;fillColor=none;align=left;verticalAlign=top;spacingLeft=4;spacingRight=4;overflow=hidden;rotatable=0;points=[[0,0.5],[1,0.5]];portConstraint=eastwest;" vertex="1" parent="aLkEenJyaQXW2KMdG-5Q-21">
          <mxGeometry y="26" width="140" height="26" as="geometry" />
        </mxCell>
        <mxCell id="aLkEenJyaQXW2KMdG-5Q-23" value="+ field: type" style="text;strokeColor=none;fillColor=none;align=left;verticalAlign=top;spacingLeft=4;spacingRight=4;overflow=hidden;rotatable=0;points=[[0,0.5],[1,0.5]];portConstraint=eastwest;" vertex="1" parent="aLkEenJyaQXW2KMdG-5Q-21">
          <mxGeometry y="52" width="140" height="26" as="geometry" />
        </mxCell>
        <mxCell id="aLkEenJyaQXW2KMdG-5Q-24" value="+ field: type" style="text;strokeColor=none;fillColor=none;align=left;verticalAlign=top;spacingLeft=4;spacingRight=4;overflow=hidden;rotatable=0;points=[[0,0.5],[1,0.5]];portConstraint=eastwest;" vertex="1" parent="aLkEenJyaQXW2KMdG-5Q-21">
          <mxGeometry y="78" width="140" height="26" as="geometry" />
        </mxCell>
      </root>
    </mxGraphModel>
  </diagram>
  <diagram id="d2B72jb1pWaySeAgqOio" name="Page-2">
    <mxGraphModel dx="1038" dy="579" grid="1" gridSize="10" guides="1" tooltips="1" connect="1" arrows="1" fold="1" page="1" pageScale="1" pageWidth="827" pageHeight="1169" math="0" shadow="0">
      <root>
        <mxCell id="ICqhfZwWXpDaiylNL7JA-0" />
        <mxCell id="ICqhfZwWXpDaiylNL7JA-1" parent="ICqhfZwWXpDaiylNL7JA-0" />
        <mxCell id="ICqhfZwWXpDaiylNL7JA-2" value="SKU&lt;br&gt;&lt;br&gt;Кровать с ПМ 200*160 DOMENICO Тк. Glance Latte&lt;br&gt;&lt;br&gt;св-ва:&lt;br&gt;Тип основания: ПМ&lt;br&gt;Базовая ширина спального места: 160" style="rounded=0;whiteSpace=wrap;html=1;" vertex="1" parent="ICqhfZwWXpDaiylNL7JA-1">
          <mxGeometry x="390" y="60" width="180" height="190" as="geometry" />
        </mxCell>
        <mxCell id="ICqhfZwWXpDaiylNL7JA-3" value="МЦ&lt;br&gt;/Справочники/Группы товаров в&amp;nbsp; Галактика/80010000000002BA/Кровать с ПМ 200*160 DOMENICO Тк. Glance Latte" style="rounded=0;whiteSpace=wrap;html=1;" vertex="1" parent="ICqhfZwWXpDaiylNL7JA-1">
          <mxGeometry x="90" y="50" width="200" height="100" as="geometry" />
        </mxCell>
        <mxCell id="ICqhfZwWXpDaiylNL7JA-4" value="МЦ&lt;br&gt;/Справочники/Группы товаров в&amp;nbsp; Галактика/8001000000000294/Основание с ПМ 200*160" style="rounded=0;whiteSpace=wrap;html=1;" vertex="1" parent="ICqhfZwWXpDaiylNL7JA-1">
          <mxGeometry x="90" y="180" width="200" height="80" as="geometry" />
        </mxCell>
        <mxCell id="ICqhfZwWXpDaiylNL7JA-5" value="" style="shape=flexArrow;endArrow=classic;startArrow=classic;html=1;rounded=0;" edge="1" parent="ICqhfZwWXpDaiylNL7JA-1">
          <mxGeometry width="100" height="100" relative="1" as="geometry">
            <mxPoint x="310" y="170" as="sourcePoint" />
            <mxPoint x="380" y="170" as="targetPoint" />
            <Array as="points">
              <mxPoint x="340" y="170" />
            </Array>
          </mxGeometry>
        </mxCell>
        <mxCell id="7IrWF_41Xo9D1DM8LtRG-0" value="Категория&lt;br&gt;&lt;br&gt;Кровати / Мягкие / DOMENICO&lt;br&gt;&lt;br&gt;" style="rounded=0;whiteSpace=wrap;html=1;" vertex="1" parent="ICqhfZwWXpDaiylNL7JA-1">
          <mxGeometry x="890" y="190" width="120" height="210" as="geometry" />
        </mxCell>
        <mxCell id="7IrWF_41Xo9D1DM8LtRG-4" value="" style="shape=flexArrow;endArrow=classic;startArrow=classic;html=1;rounded=0;" edge="1" parent="ICqhfZwWXpDaiylNL7JA-1">
          <mxGeometry width="100" height="100" relative="1" as="geometry">
            <mxPoint x="880" y="310" as="sourcePoint" />
            <mxPoint x="810" y="310" as="targetPoint" />
          </mxGeometry>
        </mxCell>
        <mxCell id="7IrWF_41Xo9D1DM8LtRG-5" value="SKU&lt;br&gt;&lt;br&gt;Кровать 200*160 Domenico К/з Plazma Oxygen + Основание King Base 200*160&lt;br&gt;&lt;br&gt;св-ва:&lt;br&gt;Тип основания:&amp;nbsp;Основание King Base&lt;br&gt;Базовая ширина спального места: 160" style="rounded=0;whiteSpace=wrap;html=1;" vertex="1" parent="ICqhfZwWXpDaiylNL7JA-1">
          <mxGeometry x="400" y="340" width="180" height="200" as="geometry" />
        </mxCell>
        <mxCell id="7IrWF_41Xo9D1DM8LtRG-6" value="МТ&lt;br&gt;&lt;br&gt;Кровать с ПМ Domenico&lt;br&gt;&lt;br&gt;кол-во МЦ: 2&lt;br&gt;&lt;br&gt;св-ва:&lt;br&gt;Тип основания&lt;br&gt;Гарантия&lt;br&gt;Страна производства&lt;br&gt;и тд" style="rounded=0;whiteSpace=wrap;html=1;" vertex="1" parent="ICqhfZwWXpDaiylNL7JA-1">
          <mxGeometry x="680" y="90" width="120" height="210" as="geometry" />
        </mxCell>
        <mxCell id="7IrWF_41Xo9D1DM8LtRG-7" value="МТ&lt;br&gt;&lt;br&gt;Кровать Domenico + Основание King Base&lt;br&gt;&lt;br&gt;кол-во МЦ: 2&lt;br&gt;&lt;br&gt;св-ва:&lt;br&gt;Тип основания&lt;br&gt;Гарантия&lt;br&gt;Страна производства&lt;br&gt;и тд" style="rounded=0;whiteSpace=wrap;html=1;" vertex="1" parent="ICqhfZwWXpDaiylNL7JA-1">
          <mxGeometry x="680" y="330" width="120" height="220" as="geometry" />
        </mxCell>
        <mxCell id="7IrWF_41Xo9D1DM8LtRG-8" value="" style="shape=flexArrow;endArrow=classic;startArrow=classic;html=1;rounded=0;" edge="1" parent="ICqhfZwWXpDaiylNL7JA-1">
          <mxGeometry width="100" height="100" relative="1" as="geometry">
            <mxPoint x="660" y="190" as="sourcePoint" />
            <mxPoint x="590" y="190" as="targetPoint" />
          </mxGeometry>
        </mxCell>
        <mxCell id="7IrWF_41Xo9D1DM8LtRG-9" value="" style="shape=flexArrow;endArrow=classic;startArrow=classic;html=1;rounded=0;" edge="1" parent="ICqhfZwWXpDaiylNL7JA-1">
          <mxGeometry width="100" height="100" relative="1" as="geometry">
            <mxPoint x="660" y="450" as="sourcePoint" />
            <mxPoint x="590" y="450" as="targetPoint" />
          </mxGeometry>
        </mxCell>
        <mxCell id="7IrWF_41Xo9D1DM8LtRG-10" value="МЦ&lt;br&gt;/Справочники/Группы товаров в&amp;nbsp; Галактика/80010000000000CF/Кровать 200*160 DOMENICO К-з Plazma Oxygen (MV)" style="rounded=0;whiteSpace=wrap;html=1;" vertex="1" parent="ICqhfZwWXpDaiylNL7JA-1">
          <mxGeometry x="90" y="450" width="200" height="80" as="geometry" />
        </mxCell>
        <mxCell id="7IrWF_41Xo9D1DM8LtRG-11" value="МЦ&lt;br&gt;/Справочники/Группы товаров в&amp;nbsp; Галактика/80010000000000B9/Основание King Base (Кинг Бейс) 200*160" style="rounded=0;whiteSpace=wrap;html=1;" vertex="1" parent="ICqhfZwWXpDaiylNL7JA-1">
          <mxGeometry x="90" y="350" width="200" height="80" as="geometry" />
        </mxCell>
        <mxCell id="7IrWF_41Xo9D1DM8LtRG-12" value="" style="shape=flexArrow;endArrow=classic;startArrow=classic;html=1;rounded=0;" edge="1" parent="ICqhfZwWXpDaiylNL7JA-1">
          <mxGeometry width="100" height="100" relative="1" as="geometry">
            <mxPoint x="300" y="440" as="sourcePoint" />
            <mxPoint x="370" y="440" as="targetPoint" />
            <Array as="points">
              <mxPoint x="330" y="440" />
            </Array>
          </mxGeometry>
        </mxCell>
      </root>
    </mxGraphModel>
  </diagram>
  <diagram id="ajUGgGzZbcPvsCThmsmC" name="Page-3">
    <mxGraphModel dx="1038" dy="579" grid="1" gridSize="10" guides="1" tooltips="1" connect="1" arrows="1" fold="1" page="1" pageScale="1" pageWidth="827" pageHeight="1169" math="0" shadow="0">
      <root>
        <mxCell id="EIC93KngTdDV428YHkQv-0" />
        <mxCell id="EIC93KngTdDV428YHkQv-1" parent="EIC93KngTdDV428YHkQv-0" />
        <mxCell id="EIC93KngTdDV428YHkQv-2" value="SKU&lt;br&gt;&lt;br&gt;Одеяло 110*140 Angel&lt;br&gt;&lt;br&gt;св-ва:&lt;br&gt;Ширина: 140&lt;br&gt;Длина: 110" style="rounded=0;whiteSpace=wrap;html=1;direction=south;" vertex="1" parent="EIC93KngTdDV428YHkQv-1">
          <mxGeometry x="400" y="180" width="180" height="120" as="geometry" />
        </mxCell>
        <mxCell id="EIC93KngTdDV428YHkQv-4" value="МЦ&lt;br&gt;/Справочники/Группы товаров в&amp;nbsp; Галактика/80010000000003F7/Одеяло 110*140 Angel" style="rounded=0;whiteSpace=wrap;html=1;" vertex="1" parent="EIC93KngTdDV428YHkQv-1">
          <mxGeometry x="90" y="180" width="200" height="80" as="geometry" />
        </mxCell>
        <mxCell id="EIC93KngTdDV428YHkQv-5" value="" style="shape=flexArrow;endArrow=classic;startArrow=classic;html=1;rounded=0;" edge="1" parent="EIC93KngTdDV428YHkQv-1">
          <mxGeometry width="100" height="100" relative="1" as="geometry">
            <mxPoint x="310" y="230" as="sourcePoint" />
            <mxPoint x="380" y="230" as="targetPoint" />
            <Array as="points">
              <mxPoint x="340" y="230" />
            </Array>
          </mxGeometry>
        </mxCell>
        <mxCell id="EIC93KngTdDV428YHkQv-6" value="Категория&lt;br&gt;&lt;br&gt;Одеяла / Askona kids / Angel&lt;br&gt;" style="rounded=0;whiteSpace=wrap;html=1;" vertex="1" parent="EIC93KngTdDV428YHkQv-1">
          <mxGeometry x="890" y="190" width="120" height="210" as="geometry" />
        </mxCell>
        <mxCell id="EIC93KngTdDV428YHkQv-7" value="" style="shape=flexArrow;endArrow=classic;startArrow=classic;html=1;rounded=0;" edge="1" parent="EIC93KngTdDV428YHkQv-1">
          <mxGeometry width="100" height="100" relative="1" as="geometry">
            <mxPoint x="880" y="310" as="sourcePoint" />
            <mxPoint x="810" y="310" as="targetPoint" />
          </mxGeometry>
        </mxCell>
        <mxCell id="EIC93KngTdDV428YHkQv-8" value="SKU&lt;br&gt;&lt;br&gt;Одеяло 205*140 Angel&lt;br&gt;&lt;br&gt;св-ва:&lt;br&gt;Ширина: 140&lt;br&gt;Длина: 205" style="rounded=0;whiteSpace=wrap;html=1;" vertex="1" parent="EIC93KngTdDV428YHkQv-1">
          <mxGeometry x="400" y="320" width="180" height="120" as="geometry" />
        </mxCell>
        <mxCell id="EIC93KngTdDV428YHkQv-9" value="МТ&lt;br&gt;&lt;br&gt;Детское одеяло Angel&lt;br&gt;&lt;br&gt;кол-во МЦ: 1&lt;br&gt;св-ва:&lt;br&gt;Гарантия&lt;br&gt;Группа налогов&lt;br&gt;Ширина&lt;br&gt;Длина" style="rounded=0;whiteSpace=wrap;html=1;" vertex="1" parent="EIC93KngTdDV428YHkQv-1">
          <mxGeometry x="680" y="200" width="120" height="210" as="geometry" />
        </mxCell>
        <mxCell id="EIC93KngTdDV428YHkQv-12" value="" style="shape=flexArrow;endArrow=classic;startArrow=classic;html=1;rounded=0;" edge="1" parent="EIC93KngTdDV428YHkQv-1">
          <mxGeometry width="100" height="100" relative="1" as="geometry">
            <mxPoint x="670" y="310" as="sourcePoint" />
            <mxPoint x="600" y="310" as="targetPoint" />
          </mxGeometry>
        </mxCell>
        <mxCell id="EIC93KngTdDV428YHkQv-14" value="МЦ&lt;br&gt;/Справочники/Группы товаров в&amp;nbsp; Галактика/80010000000003F7/Одеяло 205*140 Angel" style="rounded=0;whiteSpace=wrap;html=1;" vertex="1" parent="EIC93KngTdDV428YHkQv-1">
          <mxGeometry x="90" y="350" width="200" height="80" as="geometry" />
        </mxCell>
        <mxCell id="EIC93KngTdDV428YHkQv-15" value="" style="shape=flexArrow;endArrow=classic;startArrow=classic;html=1;rounded=0;" edge="1" parent="EIC93KngTdDV428YHkQv-1">
          <mxGeometry width="100" height="100" relative="1" as="geometry">
            <mxPoint x="310" y="379.5" as="sourcePoint" />
            <mxPoint x="380" y="379.5" as="targetPoint" />
            <Array as="points">
              <mxPoint x="340" y="379.5" />
            </Array>
          </mxGeometry>
        </mxCell>
      </root>
    </mxGraphModel>
  </diagram>
</mxfile>
